<?xml version="1.0" encoding="utf-8"?>
<!-- Generator: Adobe Illustrator 16.0.3, SVG Export Plug-In . SVG Version: 6.00 Build 0)  -->
<!DOCTYPE svg PUBLIC "-//W3C//DTD SVG 1.1//EN" "http://www.w3.org/Graphics/SVG/1.1/DTD/svg11.dtd">
<svg version="1.1" id="Warstwa_1" xmlns="http://www.w3.org/2000/svg" xmlns:xlink="http://www.w3.org/1999/xlink" x="0px" y="0px"
	 viewBox="122.3 162.8 234.3 234.3" enable-background="new 0 0 960 560" xml:space="preserve">
<g>
	<path fill-rule="evenodd" clip-rule="evenodd" fill="#28292C" d="M297.92,265.212c-0.001,11.171-1.068,22.122-6.394,32.241
		c-5.201,9.879-12.896,16.967-23.387,20.895c-1.864,0.698-3.959,1.529-5.668-0.24c-1.825-1.89-2-4.446-2.191-6.915
		c-0.07-0.902,0.806-1.147,1.417-1.497c12.628-7.25,17.649-19.219,20.345-32.663c0.388-1.933-0.834-1.667-1.885-1.57
		c-4.918,0.453-9.832,0.959-14.747,1.451c-0.272,0.027-0.54,0.106-0.812,0.142c-5.274,0.701-5.119,0.703-5.013-4.566
		c0.171-8.485-2.721-16.149-6.922-23.358c-0.959-1.646-1.353-3.258-1.452-5.148c-0.548-10.508-1.395-21.002-1.835-31.514
		c-0.361-8.607,0.259-17.205,1.482-25.735c0.407-2.839,0.45-6.22,3.727-7.427c3.198-1.178,5.563,1.148,7.781,2.992
		c11.65,9.678,19.855,21.896,25.839,35.673C294.743,233.026,297.889,248.806,297.92,265.212z"/>
	<path fill-rule="evenodd" clip-rule="evenodd" fill="#28292C" d="M230.93,206.463c0.147,10.501-1.146,21.693-1.772,32.921
		c-0.267,4.779-1.57,8.973-3.846,13.162c-2.947,5.423-4.523,11.385-4.315,17.644c0.066,1.994-0.638,2.298-2.371,1.982
		c-6.307-1.147-12.672-1.793-19.079-2.058c-1.469-0.061-2.021,0.103-1.747,1.909c1.114,7.323,3.264,14.223,7.237,20.533
		c2.896,4.598,6.526,8.367,11.498,10.666c1.84,0.851,2.539,2.127,2.424,4.087c-0.145,2.459,0.145,4.942-0.449,7.376
		c-0.937,3.83-3.068,5.087-6.667,3.596c-14.549-6.027-24.248-16.744-27.37-32.052c-7.119-34.904,1.036-66.34,23.504-93.992
		c3.407-4.193,7.356-7.912,11.8-11.036c5.322-3.741,8.22-2.572,9.392,3.999C230.375,191.964,230.54,198.842,230.93,206.463z"/>
	<path fill-rule="evenodd" clip-rule="evenodd" fill="#6D8B3D" d="M245.213,295.357c2.352-6.166,7.355-8.596,13.431-9.293
		c2.899-0.332,5.85-0.2,8.774-0.352c1.038-0.055,1.178,0.276,1.095,1.256c-0.669,7.896-7.908,16.248-15.265,17.523
		c-1.646,0.286-3.334,0.418-4.88-0.219c-1.793-0.737-2.829-0.098-3.932,1.295c-2.238,2.826-3.083,6.012-2.748,9.509
		c0.859,8.965,0.664,17.912-0.251,26.856c-0.074,0.729-0.07,1.469-0.205,2.185c-0.159,0.846-0.053,1.897-1.429,1.933
		c-1.471,0.039-1.274-1.045-1.342-1.893c-0.642-8.025-1.424-16.045-0.67-24.114c0.341-3.646,0.427-7.304,0.286-10.971
		c-0.106-2.745-0.992-5.187-2.41-7.481c-1.336-2.162-2.861-3.369-5.806-2.833c-5.161,0.939-9.515-0.854-12.783-5.108
		c-2.707-3.524-4.739-7.377-6.014-11.63c-0.252-0.841-0.804-1.869,0.828-1.915c8.297-0.236,16.174,0.644,21.556,8.135
		c0.101,0.153,0.203,0.309,0.305,0.463c0.083,0.213,0.166,0.428,0.248,0.641c0.128,1.088,0.256,2.176,0.384,3.265
		c-0.003,1.831-0.799,3.886,1.432,5.089l-0.027,0.006c0.545,0.896,0.984,1.884,2.41,2.621c0-3.113,0-5.96,0-8.807
		c0.027-1.508,0.491-2.145,2.212-1.631c1.415,0.422,0.364,1.611,1.01,2.166c0.026,1.282,0.053,2.564,0.079,3.847
		c-0.009,2.604-0.033,5.208-0.011,7.813c0.002,0.306-0.294,1.072,0.545,0.761c0.255-0.094,0.372-0.56,0.552-0.855
		c0.762-1.092,2.306-1.673,2.187-3.342C244.579,298.605,244.958,296.986,245.213,295.357z M224.408,288.785
		c-0.143-0.068-0.12-0.491-0.43-0.199c0.157,0.053,0.313,0.105,0.47,0.159c0.225,0.448,0.635,0.532,1.08,0.548
		c2.684,1.852,5.38,3.686,7.904,5.757c-2.079-2.7-4.261-5.255-7.938-5.722C225.421,288.568,224.814,288.877,224.408,288.785z
		 M246.935,299.189c2.198-1.459,4.396-2.92,6.594-4.381c0.167-0.068,0.333-0.135,0.499-0.203c-0.087-0.058-0.174-0.116-0.262-0.176
		c-0.064,0.141-0.127,0.281-0.191,0.421c-2.866,0.467-5.188,1.753-6.609,4.393c-0.234-0.345-0.413-0.094-0.581,0.067
		c-0.032,0.031-0.001,0.205,0.038,0.221C246.75,299.668,246.857,299.445,246.935,299.189z"/>
	<path fill-rule="evenodd" clip-rule="evenodd" fill="#6D8B3D" d="M235.352,286.168c-6.104-7.038-6.628-14.829-3.347-23.266
		c2.06-5.297,5.234-9.969,7.917-15.482c3.996,7.583,8.916,14.23,9.794,22.677c0.802,7.719-1.499,14.033-8.257,18.345
		c-1.008-0.76-0.528-1.854-0.577-2.797c-0.241-4.653-0.419-9.31-0.653-14.749c-0.584,0.98-0.793,1.18-0.825,1.405
		c-0.565,4.078-0.719,8.18-0.765,12.293c-0.013,1.123,0.636,2.754-0.42,3.271C237.09,288.418,236.393,286.664,235.352,286.168z"/>
	<path fill-rule="evenodd" clip-rule="evenodd" fill="#5586A8" d="M321.785,291.998c2.682-0.001,4.956,1.973,5.297,4.598
		c0.333,2.572-1.347,5.348-3.986,5.752c-1.854,0.283-2.501,1.213-3.221,2.705c-5.725,11.893-13.038,22.647-23.025,31.42
		c-0.938,0.824-1.147,1.593-0.946,2.849c0.747,4.657-3.169,7.82-7.549,6.028c-1.351-0.553-2.164-0.274-3.227,0.387
		c-9.992,6.215-20.844,10.155-32.454,11.949c-1.271,0.197-3.566,1.451-3.855-0.787c-0.276-2.141,2.168-1.292,3.373-1.501
		c11.296-1.952,21.921-5.673,31.749-11.623c1.031-0.624,1.515-1.204,1.457-2.566c-0.199-4.653,2.756-7.017,7.182-5.759
		c1.306,0.372,2.033,0,2.89-0.805c9.522-8.938,16.844-19.459,22.579-31.146c0.649-1.324,0.232-2.145-0.493-3.191
		c-1.24-1.791-1.351-3.773-0.265-5.689C318.26,292.909,319.747,291.943,321.785,291.998z"/>
	<path fill-rule="evenodd" clip-rule="evenodd" fill="#5586A8" d="M183.702,339.924c1.104-2.109-0.532-3.318-2.052-4.732
		c-9.234-8.592-16.331-18.719-21.374-30.27c-0.637-1.459-1.209-2.33-3.054-2.469c-2.423-0.18-3.893-1.874-4.23-4.34
		c-0.348-2.549,0.592-4.554,2.941-5.639c2.19-1.012,4.322-0.71,6.028,1.102c1.758,1.865,2.332,4.217,0.781,6.25
		c-1.416,1.857-1.007,3.258-0.132,4.972c5.61,10.995,12.332,21.175,21.446,29.64c1.069,0.992,1.866,1.524,3.531,0.973
		c3.486-1.155,6.718,1.352,6.61,5.109c-0.055,1.932,0.784,2.7,2.237,3.553c9.985,5.856,20.708,9.6,32.105,11.507
		c0.847,0.142,2.407-0.23,2.237,1.323c-0.195,1.782-1.748,0.939-2.644,0.836c-11.925-1.381-22.852-5.639-33.083-11.777
		c-1.417-0.85-2.469-1.233-4.189-0.489C187.229,347.043,183.528,344.186,183.702,339.924z"/>
	<path fill-rule="evenodd" clip-rule="evenodd" fill="#5586A8" d="M245.305,357.575c-0.054,3.177-2.473,5.495-5.622,5.389
		c-2.967-0.101-5.302-2.537-5.276-5.507c0.026-3.031,2.664-5.555,5.671-5.424C243.037,352.16,245.355,354.619,245.305,357.575z"/>
	<path fill-rule="evenodd" clip-rule="evenodd" fill="#6D8B3D" d="M183.36,355.82c0.056,2.611-1.996,4.781-4.58,4.844
		c-2.604,0.063-4.814-1.987-4.907-4.551c-0.097-2.681,2.104-5.016,4.739-5.026C181.114,351.076,183.305,353.261,183.36,355.82z"/>
	<path fill-rule="evenodd" clip-rule="evenodd" fill="#6D8B3D" d="M301.102,360.705c-2.509,0.01-4.671-2.152-4.717-4.721
		c-0.05-2.751,2.095-4.966,4.763-4.918c2.466,0.043,4.588,2.29,4.588,4.857C305.735,358.508,303.617,360.693,301.102,360.705z"/>
	<path fill-rule="evenodd" clip-rule="evenodd" fill="#6D8B3D" d="M318.535,330.885c0.194-2.723,2.563-4.743,5.245-4.473
		c2.422,0.244,4.122,2.416,3.962,5.062c-0.162,2.685-2.288,4.509-5.011,4.3C320.25,335.584,318.357,333.379,318.535,330.885z"/>
	<path fill-rule="evenodd" clip-rule="evenodd" fill="#6D8B3D" d="M156.66,326.385c2.586-0.061,4.57,1.95,4.611,4.674
		c0.041,2.689-1.907,4.699-4.558,4.705c-2.569,0.005-4.712-2.099-4.727-4.641C151.971,328.625,154.121,326.445,156.66,326.385z"/>
	<path fill-rule="evenodd" clip-rule="evenodd" fill="#28292C" d="M244.521,376.363c-0.008,2.5-2.018,4.58-4.482,4.641
		c-2.635,0.065-4.718-2.021-4.666-4.672c0.054-2.727,2.069-4.7,4.715-4.62C242.565,371.787,244.53,373.849,244.521,376.363z"/>
	<path fill-rule="evenodd" clip-rule="evenodd" fill="#28292C" d="M271.758,375.522c-2.594,0.042-4.634-2.058-4.618-4.75
		c0.016-2.504,2.078-4.585,4.529-4.572c2.356,0.013,4.396,2.148,4.461,4.67C276.196,373.438,274.274,375.482,271.758,375.522z"/>
	<path fill-rule="evenodd" clip-rule="evenodd" fill="#6D8B3D" d="M212.627,370.612c0.065,2.582-1.978,4.814-4.5,4.915
		c-2.607,0.104-4.647-1.885-4.698-4.58c-0.05-2.652,1.947-4.764,4.528-4.785C210.346,366.141,212.568,368.259,212.627,370.612z"/>
	<path fill-rule="evenodd" clip-rule="evenodd" fill="#EDEDED" d="M233.753,288.703c-0.102-0.154-0.204-0.31-0.305-0.463
		C233.549,288.395,233.651,288.549,233.753,288.703z"/>
	<path fill-rule="evenodd" clip-rule="evenodd" fill="#FDFFFF" d="M235.79,297.703c1.805-0.475,1.038-1.976,1.271-3.102
		c0.223-1.074-0.823-2.648,1.138-3.084c0,2.847,0,5.693,0,8.807C236.774,299.587,236.335,298.6,235.79,297.703z"/>
	<path fill-rule="evenodd" clip-rule="evenodd" fill="#FDFFFF" d="M242.587,303.617c-1.436-2.53,0.018-3.17,2.187-3.342
		C244.894,301.944,243.35,302.525,242.587,303.617z"/>
	<path fill-rule="evenodd" clip-rule="evenodd" fill="#EDEDED" d="M225.527,289.293c-0.445-0.016-0.855-0.1-1.08-0.548l-0.04,0.04
		c0.406,0.092,1.013-0.217,1.086,0.543L225.527,289.293z"/>
	<path fill-rule="evenodd" clip-rule="evenodd" fill="#EDEDED" d="M224.448,288.745c-0.157-0.054-0.313-0.106-0.47-0.159
		c0.31-0.292,0.288,0.131,0.431,0.199L224.448,288.745z"/>
	<path fill-rule="evenodd" clip-rule="evenodd" fill="#EDEDED" d="M246.935,299.189c-0.077,0.256-0.184,0.479-0.512,0.342
		c-0.04-0.016-0.07-0.189-0.038-0.221c0.168-0.161,0.347-0.412,0.581-0.066L246.935,299.189z"/>
	<path fill-rule="evenodd" clip-rule="evenodd" fill="#EDEDED" d="M253.575,294.851c0.063-0.14,0.127-0.28,0.191-0.421
		c0.087,0.06,0.174,0.118,0.262,0.176c-0.167,0.068-0.333,0.135-0.499,0.203C253.53,294.811,253.575,294.851,253.575,294.851z"/>
</g></svg>